<mxfile host="Electron" agent="Mozilla/5.0 (Macintosh; Intel Mac OS X 10_15_7) AppleWebKit/537.36 (KHTML, like Gecko) draw.io/24.7.8 Chrome/128.0.6613.36 Electron/32.0.1 Safari/537.36" version="24.7.8">
  <diagram name="Page-1" id="-P1T1CmwqjQaEx281Dvt">
    <mxGraphModel dx="1026" dy="772" grid="1" gridSize="10" guides="1" tooltips="1" connect="1" arrows="1" fold="1" page="1" pageScale="1" pageWidth="850" pageHeight="1100" math="0" shadow="0">
      <root>
        <mxCell id="0" />
        <mxCell id="1" parent="0" />
        <mxCell id="M0sfDCURq4YuRaLbB_dS-23" value="" style="rounded=0;whiteSpace=wrap;html=1;" vertex="1" parent="1">
          <mxGeometry x="150" y="83" width="560" height="457" as="geometry" />
        </mxCell>
        <mxCell id="M0sfDCURq4YuRaLbB_dS-5" style="edgeStyle=orthogonalEdgeStyle;rounded=0;orthogonalLoop=1;jettySize=auto;html=1;exitX=0.5;exitY=1;exitDx=0;exitDy=0;startArrow=classic;startFill=1;" edge="1" parent="1" source="M0sfDCURq4YuRaLbB_dS-1" target="M0sfDCURq4YuRaLbB_dS-2">
          <mxGeometry relative="1" as="geometry" />
        </mxCell>
        <mxCell id="M0sfDCURq4YuRaLbB_dS-6" style="edgeStyle=orthogonalEdgeStyle;rounded=0;orthogonalLoop=1;jettySize=auto;html=1;exitX=0.5;exitY=1;exitDx=0;exitDy=0;" edge="1" parent="1" source="M0sfDCURq4YuRaLbB_dS-1" target="M0sfDCURq4YuRaLbB_dS-4">
          <mxGeometry relative="1" as="geometry" />
        </mxCell>
        <mxCell id="M0sfDCURq4YuRaLbB_dS-7" style="edgeStyle=orthogonalEdgeStyle;rounded=0;orthogonalLoop=1;jettySize=auto;html=1;exitX=0.5;exitY=1;exitDx=0;exitDy=0;entryX=0.5;entryY=0;entryDx=0;entryDy=0;" edge="1" parent="1" source="M0sfDCURq4YuRaLbB_dS-1" target="M0sfDCURq4YuRaLbB_dS-3">
          <mxGeometry relative="1" as="geometry" />
        </mxCell>
        <mxCell id="M0sfDCURq4YuRaLbB_dS-1" value="Gateway (Auth &amp;amp; Rate Limitter)" style="rounded=0;whiteSpace=wrap;html=1;fillColor=#dae8fc;strokeColor=#6c8ebf;" vertex="1" parent="1">
          <mxGeometry x="195" y="220" width="460" height="40" as="geometry" />
        </mxCell>
        <mxCell id="M0sfDCURq4YuRaLbB_dS-11" style="edgeStyle=orthogonalEdgeStyle;rounded=0;orthogonalLoop=1;jettySize=auto;html=1;exitX=0.5;exitY=1;exitDx=0;exitDy=0;" edge="1" parent="1" source="M0sfDCURq4YuRaLbB_dS-2" target="M0sfDCURq4YuRaLbB_dS-10">
          <mxGeometry relative="1" as="geometry" />
        </mxCell>
        <mxCell id="M0sfDCURq4YuRaLbB_dS-20" style="edgeStyle=orthogonalEdgeStyle;rounded=0;orthogonalLoop=1;jettySize=auto;html=1;exitX=0;exitY=0.5;exitDx=0;exitDy=0;entryX=0;entryY=0.5;entryDx=0;entryDy=0;dashed=1;" edge="1" parent="1" source="M0sfDCURq4YuRaLbB_dS-2" target="M0sfDCURq4YuRaLbB_dS-17">
          <mxGeometry relative="1" as="geometry" />
        </mxCell>
        <mxCell id="M0sfDCURq4YuRaLbB_dS-2" value="Customer Service" style="rounded=0;whiteSpace=wrap;html=1;fillColor=#fff2cc;strokeColor=#d6b656;" vertex="1" parent="1">
          <mxGeometry x="195" y="340" width="140" height="40" as="geometry" />
        </mxCell>
        <mxCell id="M0sfDCURq4YuRaLbB_dS-13" style="edgeStyle=orthogonalEdgeStyle;rounded=0;orthogonalLoop=1;jettySize=auto;html=1;exitX=0.5;exitY=1;exitDx=0;exitDy=0;entryX=0.5;entryY=0;entryDx=0;entryDy=0;" edge="1" parent="1" source="M0sfDCURq4YuRaLbB_dS-3" target="M0sfDCURq4YuRaLbB_dS-10">
          <mxGeometry relative="1" as="geometry" />
        </mxCell>
        <mxCell id="M0sfDCURq4YuRaLbB_dS-22" style="edgeStyle=orthogonalEdgeStyle;rounded=0;orthogonalLoop=1;jettySize=auto;html=1;exitX=0.75;exitY=1;exitDx=0;exitDy=0;entryX=1;entryY=0.5;entryDx=0;entryDy=0;jumpStyle=arc;dashed=1;" edge="1" parent="1" source="M0sfDCURq4YuRaLbB_dS-3" target="M0sfDCURq4YuRaLbB_dS-18">
          <mxGeometry relative="1" as="geometry">
            <Array as="points">
              <mxPoint x="460" y="410" />
              <mxPoint x="675" y="410" />
              <mxPoint x="675" y="505" />
            </Array>
          </mxGeometry>
        </mxCell>
        <mxCell id="M0sfDCURq4YuRaLbB_dS-3" value="Product Service" style="rounded=0;whiteSpace=wrap;html=1;fillColor=#fff2cc;strokeColor=#d6b656;" vertex="1" parent="1">
          <mxGeometry x="355" y="340" width="140" height="40" as="geometry" />
        </mxCell>
        <mxCell id="M0sfDCURq4YuRaLbB_dS-12" style="edgeStyle=orthogonalEdgeStyle;rounded=0;orthogonalLoop=1;jettySize=auto;html=1;exitX=0.5;exitY=1;exitDx=0;exitDy=0;entryX=0.5;entryY=0;entryDx=0;entryDy=0;jumpStyle=arc;" edge="1" parent="1" source="M0sfDCURq4YuRaLbB_dS-4" target="M0sfDCURq4YuRaLbB_dS-10">
          <mxGeometry relative="1" as="geometry" />
        </mxCell>
        <mxCell id="M0sfDCURq4YuRaLbB_dS-21" style="edgeStyle=orthogonalEdgeStyle;rounded=0;orthogonalLoop=1;jettySize=auto;html=1;exitX=1;exitY=0.5;exitDx=0;exitDy=0;entryX=1;entryY=0.5;entryDx=0;entryDy=0;dashed=1;" edge="1" parent="1" source="M0sfDCURq4YuRaLbB_dS-4" target="M0sfDCURq4YuRaLbB_dS-18">
          <mxGeometry relative="1" as="geometry" />
        </mxCell>
        <mxCell id="M0sfDCURq4YuRaLbB_dS-4" value="Order Management Service" style="rounded=0;whiteSpace=wrap;html=1;fillColor=#fff2cc;strokeColor=#d6b656;" vertex="1" parent="1">
          <mxGeometry x="515" y="340" width="140" height="40" as="geometry" />
        </mxCell>
        <mxCell id="M0sfDCURq4YuRaLbB_dS-8" value="gRPC" style="text;html=1;align=center;verticalAlign=middle;resizable=0;points=[];autosize=1;strokeColor=none;fillColor=none;" vertex="1" parent="1">
          <mxGeometry x="540" y="276" width="60" height="30" as="geometry" />
        </mxCell>
        <mxCell id="M0sfDCURq4YuRaLbB_dS-9" value="gRPC" style="text;html=1;align=center;verticalAlign=middle;resizable=0;points=[];autosize=1;strokeColor=none;fillColor=none;" vertex="1" parent="1">
          <mxGeometry x="252" y="275" width="60" height="30" as="geometry" />
        </mxCell>
        <mxCell id="M0sfDCURq4YuRaLbB_dS-10" value="MariaDB" style="rounded=0;whiteSpace=wrap;html=1;fillColor=#d5e8d4;strokeColor=#82b366;" vertex="1" parent="1">
          <mxGeometry x="195" y="428" width="460" height="40" as="geometry" />
        </mxCell>
        <mxCell id="M0sfDCURq4YuRaLbB_dS-15" style="edgeStyle=orthogonalEdgeStyle;rounded=0;orthogonalLoop=1;jettySize=auto;html=1;exitX=0.5;exitY=1;exitDx=0;exitDy=0;entryX=0.5;entryY=0;entryDx=0;entryDy=0;" edge="1" parent="1" source="M0sfDCURq4YuRaLbB_dS-14" target="M0sfDCURq4YuRaLbB_dS-1">
          <mxGeometry relative="1" as="geometry" />
        </mxCell>
        <mxCell id="M0sfDCURq4YuRaLbB_dS-14" value="Client Application" style="rounded=0;whiteSpace=wrap;html=1;" vertex="1" parent="1">
          <mxGeometry x="365" y="103" width="120" height="40" as="geometry" />
        </mxCell>
        <mxCell id="M0sfDCURq4YuRaLbB_dS-16" value="HTTP" style="text;html=1;align=center;verticalAlign=middle;resizable=0;points=[];autosize=1;strokeColor=none;fillColor=none;" vertex="1" parent="1">
          <mxGeometry x="422" y="160" width="50" height="30" as="geometry" />
        </mxCell>
        <mxCell id="M0sfDCURq4YuRaLbB_dS-19" style="edgeStyle=orthogonalEdgeStyle;rounded=0;orthogonalLoop=1;jettySize=auto;html=1;exitX=1;exitY=0.5;exitDx=0;exitDy=0;entryX=0;entryY=0.5;entryDx=0;entryDy=0;" edge="1" parent="1" source="M0sfDCURq4YuRaLbB_dS-17" target="M0sfDCURq4YuRaLbB_dS-18">
          <mxGeometry relative="1" as="geometry" />
        </mxCell>
        <mxCell id="M0sfDCURq4YuRaLbB_dS-17" value="OTEL Collector" style="rounded=0;whiteSpace=wrap;html=1;" vertex="1" parent="1">
          <mxGeometry x="195" y="490" width="205" height="30" as="geometry" />
        </mxCell>
        <mxCell id="M0sfDCURq4YuRaLbB_dS-18" value="Signoz - Observability" style="rounded=0;whiteSpace=wrap;html=1;" vertex="1" parent="1">
          <mxGeometry x="450" y="490" width="205" height="30" as="geometry" />
        </mxCell>
        <mxCell id="M0sfDCURq4YuRaLbB_dS-24" value="Application Cluster" style="text;html=1;align=center;verticalAlign=middle;resizable=0;points=[];autosize=1;strokeColor=none;fillColor=none;fontStyle=1" vertex="1" parent="1">
          <mxGeometry x="595" y="53" width="120" height="30" as="geometry" />
        </mxCell>
      </root>
    </mxGraphModel>
  </diagram>
</mxfile>
